# xmcd
#
# Track frame offsets:
#	150
#	10160
#	23402
#	35500
#	45957
#	59352
#	72460
#	85902
#	98727
#	109857
#	122232
#	133445
#	146852
#	158985
#	170915
#	184280
#	195617
#	207995
#	220605
#	231952
#	245145
#	256515
#	270295
#	283440
#	296840
#	311210
#	324485
#
# Disc length: 4496
#
# Revision: 1
# Processed by: cddbd v1.5.1PL0 Copyright (c) Steve Scherf et al.
# Submitted via: dBpowerAMP V4.0
# Normalized: r0:TDELIM( - )
#
DISCID=a3118e1b
DTITLE=Various Artist - Motown The History - 1964 - 1965 - Family Affair
DYEAR=1900
DGENRE=Motown
TTITLE0=Brenda Holloway - When I'm Gone
TTITLE1=Marvin Gaye and Kim Weston - What Good Am I Without You
TTITLE2=Martha Reeves and The Vandellas - Dancing In The Street
TTITLE3=Temptations - (Girl) Why You Wanna Make Me Blue
TTITLE4=Marv Johnson - Why Do You Want To Let Me Go
TTITLE5=Martha Reeves and The Vandellas - Jimmy Mack
TTITLE6=Four Tops - Ask The Lonely
TTITLE7=Smokey Robinson and The Miracles - That's What Love Is Made Of
TTITLE8=Eddie Holland - Candy To Me
TTITLE9=Diana Ross and The Supremes - Come See About Me
TTITLE10=Velvelettes - Needle In A Haystack
TTITLE11=Marvin Gaye - How Sweet It Is (To Be Loved By You)
TTITLE12=Marvin Gaye - Baby Don't You Do It
TTITLE13=Diana Ross and The Supremes - Baby Love
TTITLE14=Kim Weston - Take Me In Your Arms (Rock Me A Little While)
TTITLE15=Marvelettes - Too Many Fish In The Sea
TTITLE16=Temptations - My Girl
TTITLE17=Martha Reeves and The Vandellas - Nowhere To Run
TTITLE18=Contours - Can You Jerk Like Me
TTITLE19=Diana Ross and The Supremes - Back In My Arms Again
TTITLE20=Velvelettes - He Was Really Sayin' Something
TTITLE21=Jr Walker and The All Stars - Shotgun
TTITLE22=Diana Ross and The Supremes - Stop! In The Name Of Love
TTITLE23=Temptations - It's Growing
TTITLE24=Marvin Gaye - Your Unchanging Love
TTITLE25=Smokey Robinson and The Miracles - The Tracks Of My Tears
TTITLE26=Marvin Gaye - I'll Be Doggone
EXTD=tim1701
EXTT0=
EXTT1=
EXTT2=
EXTT3=
EXTT4=
EXTT5=
EXTT6=
EXTT7=
EXTT8=
EXTT9=
EXTT10=
EXTT11=
EXTT12=
EXTT13=
EXTT14=
EXTT15=
EXTT16=
EXTT17=
EXTT18=
EXTT19=
EXTT20=
EXTT21=
EXTT22=
EXTT23=
EXTT24=
EXTT25=
EXTT26=
PLAYORDER=
